# xmcd CD database file
# Copyright (C) 1993-1998 Ti Kan
#
# Track frame offsets:
#	182
#	14822
#	29637
#	46110
#	58542
#	77680
#	98167
#	117215
#	128955
#	142917
#	161262
#	179422
#	197695
#	214972
#	232675
#	257525
#	273255
#	287907
#	305852
#
# Disc length: 4385 seconds
#
# Revision: 3
# Processed by: cddbd v1.4b41PL1 Copyright (c) Steve Scherf et al.
# Submitted via: NotifyCDPlayer(CDDB) 1.51
#
DISCID=0d111f13
DTITLE=Larry Jensen - Song House
DYEAR=1900
DGENRE=
TTITLE0=Peculiar
TTITLE1=How Does She Do It?
TTITLE2=Pluggin' In Pluggin' On
TTITLE3=The Day My Baby Said Goodbye
TTITLE4=Illusions
TTITLE5=She Don't Live Here
TTITLE6=Business
TTITLE7=Desert Rain
TTITLE8=I'm Your Boy
TTITLE9=Five Weeks
TTITLE10=Show Me Where it Hurts
TTITLE11=Do You Know Where Your Children Are?
TTITLE12=Daddy's Back in Town
TTITLE13=Face On A Billboard
TTITLE14=Agent Of The Road
TTITLE15=Big Money
TTITLE16=Home To Die
TTITLE17=Carolyna
TTITLE18=Wave It Goodbye
EXTD=
EXTT0=
EXTT1=
EXTT2=
EXTT3=
EXTT4=
EXTT5=
EXTT6=
EXTT7=
EXTT8=
EXTT9=
EXTT10=
EXTT11=
EXTT12=
EXTT13=
EXTT14=
EXTT15=
EXTT16=
EXTT17=
EXTT18=
PLAYORDER=
